<?xml version="1.0" encoding="UTF-8"?>
<svg xmlns="http://www.w3.org/2000/svg" width="159" height="40" viewBox="0 0 159 40" fill="none">
  <path d="M60.1713 29.2986C61.804 29.2986 63.0153 29.0389 63.7527 28.4675C64.49 27.948 64.9113 27.0649 64.8587 26.1817C64.8587 25.6623 64.7533 25.1428 64.49 24.6752C64.2267 24.2077 63.858 23.8441 63.4367 23.5324C62.91 23.1688 62.3307 22.8571 61.6987 22.5973C60.9613 22.2856 60.1713 21.9739 59.3813 21.7142C58.5387 21.4025 57.696 21.0908 56.8533 20.7272C56.0633 20.3636 55.3787 19.948 54.7467 19.3765C54.1147 18.8571 53.6407 18.1817 53.272 17.4545C52.9033 16.6233 52.6927 15.6882 52.7453 14.7532C52.64 12.7791 53.5353 10.8571 55.0627 9.55836C56.6427 8.31161 58.7493 7.68823 61.4353 7.68823C62.8573 7.68823 64.2267 7.84408 65.596 8.20771C66.5967 8.46745 67.5447 8.83109 68.44 9.29862L67.018 12.883C66.1753 12.4155 65.28 12.0519 64.332 11.8441C63.3313 11.6363 62.3307 11.4804 61.33 11.4804C60.3293 11.4285 59.3287 11.6882 58.486 12.2077C57.8013 12.6752 57.4327 13.4545 57.4327 14.2856C57.4327 14.7532 57.538 15.2726 57.8013 15.6882C58.0647 16.1038 58.3807 16.4675 58.7493 16.7272C59.2233 17.0389 59.6973 17.3506 60.224 17.5584C60.8033 17.8181 61.4353 18.0778 62.0673 18.2856C63.226 18.7012 64.2793 19.1168 65.2273 19.5843C66.07 19.9999 66.86 20.5194 67.5447 21.1428C68.1767 21.7142 68.6507 22.4415 69.0193 23.2207C69.388 24.1558 69.546 25.1428 69.4933 26.1298C69.5987 28.1038 68.7033 30.0259 67.1233 31.2207C65.5433 32.4155 63.1733 33.0389 60.1187 33.0389C59.1707 33.0389 58.2227 32.9869 57.2747 32.8311C56.4847 32.7272 55.7473 32.5714 55.01 32.3636C54.4307 32.2077 53.8513 31.9999 53.3247 31.7921C52.956 31.6363 52.5347 31.4804 52.166 31.2726L53.4827 27.6363C54.3253 28.0519 55.2207 28.4155 56.116 28.6752C57.4853 29.1428 58.8547 29.3506 60.1713 29.2986Z" fill="black"></path>
  <path d="M79.6058 13.7662C80.8171 13.7143 82.0811 13.922 83.2398 14.2857C84.1351 14.5974 84.9251 15.1168 85.6098 15.7922C86.1891 16.4675 86.6631 17.2467 86.8738 18.0779C87.1371 19.0649 87.2424 20.0519 87.2424 21.0389V32.1558C86.5578 32.3117 85.5571 32.4675 84.1877 32.6753C82.6604 32.8831 81.1331 32.987 79.6058 32.987C78.5524 32.987 77.5518 32.8831 76.4984 32.6753C75.6558 32.5194 74.8131 32.1558 74.1284 31.6363C73.4438 31.1688 72.9171 30.5454 72.6011 29.8181C72.2324 28.935 72.0217 28 72.0744 27.0649C72.0217 26.1298 72.2851 25.1948 72.7064 24.4155C73.1278 23.6883 73.7071 23.0649 74.3918 22.5974C75.1818 22.1298 76.0244 21.7662 76.9198 21.6104C77.9204 21.4026 78.8684 21.2987 79.8691 21.2987C80.9224 21.2987 82.0284 21.4545 83.0818 21.6623V20.987C83.0818 20.5194 83.0291 20.0519 82.9238 19.5844C82.7131 18.6493 82.0284 17.922 81.1331 17.6104C80.5538 17.4026 79.9218 17.2987 79.2898 17.3506C78.3418 17.3506 77.4464 17.4026 76.4984 17.5584C75.8138 17.6623 75.1291 17.8181 74.4444 18.0259L73.9177 14.5974C74.7077 14.3376 75.4978 14.1818 76.3404 14.0259C77.3411 13.8701 78.4471 13.7662 79.6058 13.7662ZM79.9744 29.6104C80.9751 29.6104 82.0284 29.5584 83.0291 29.4026V24.6753C82.6604 24.5714 82.3444 24.5194 81.9757 24.4675C81.5017 24.4155 80.9751 24.3636 80.4484 24.3636C79.9744 24.3636 79.4478 24.4155 78.9738 24.4675C78.4998 24.5194 78.0784 24.6753 77.6571 24.8311C77.2884 24.987 76.9198 25.2987 76.7091 25.6104C76.4458 25.974 76.3404 26.4415 76.3404 26.9091C76.3404 27.8961 76.6564 28.6233 77.2884 28.987C78.1311 29.4545 79.0264 29.6104 79.9744 29.6104Z" fill="black"></path>
  <path d="M107.045 30.7012C107.045 33.6103 106.308 35.7921 104.781 37.1427C103.253 38.4934 100.936 39.1687 97.7759 39.1687C96.6699 39.1687 95.5112 39.0648 94.4052 38.909C93.4046 38.7531 92.4039 38.4934 91.4559 38.1817L92.2459 34.5453C93.0885 34.857 93.9312 35.1168 94.7739 35.2726C95.7745 35.4804 96.8279 35.5843 97.8285 35.5324C99.5665 35.5324 100.831 35.1687 101.568 34.4934C102.305 33.8181 102.674 32.7272 102.674 31.3246V30.6492C102.147 30.909 101.568 31.1168 100.989 31.2726C100.199 31.4804 99.3559 31.5843 98.5659 31.5843C97.4599 31.5843 96.3012 31.4285 95.2479 31.0129C94.2999 30.6492 93.4045 30.0778 92.6672 29.3505C91.9299 28.5713 91.3505 27.6362 91.0345 26.6492C90.6132 25.4544 90.4026 24.1557 90.4552 22.857C90.4552 21.6103 90.6659 20.3635 91.0872 19.1687C91.4559 18.0778 92.0879 17.0908 92.9305 16.3116C93.7732 15.4804 94.7739 14.857 95.8799 14.4414C97.1439 13.9739 98.4605 13.7661 99.7772 13.7661C101.147 13.7661 102.463 13.87 103.833 14.0778C105.097 14.2856 106.203 14.4934 107.098 14.7531L107.045 30.7012ZM94.8792 22.909C94.8792 24.7272 95.3005 26.0778 96.0905 26.857C96.8805 27.6882 98.0392 28.1557 99.1979 28.1038C99.8825 28.1038 100.515 27.9999 101.147 27.844C101.673 27.6882 102.2 27.4804 102.621 27.1687V17.6622C102.253 17.5583 101.831 17.5064 101.463 17.4544C100.883 17.4025 100.304 17.3505 99.7245 17.3505C98.3552 17.2466 96.9859 17.8181 96.0905 18.909C95.3005 20.0518 94.8265 21.4544 94.8792 22.909Z" fill="black"></path>
  <path d="M117.789 13.7662C119.001 13.7143 120.265 13.922 121.423 14.2857C122.319 14.5974 123.109 15.1168 123.793 15.7922C124.425 16.4675 124.847 17.2467 125.057 18.0779C125.321 19.0649 125.426 20.0519 125.426 21.0389V32.1558C124.741 32.3117 123.741 32.4675 122.371 32.6753C120.844 32.8831 119.317 32.987 117.789 32.987C116.736 32.987 115.683 32.8831 114.682 32.6753C113.839 32.5194 112.997 32.1558 112.259 31.6363C111.575 31.1688 111.048 30.5454 110.732 29.8181C110.363 28.935 110.153 28 110.205 27.0649C110.153 26.1298 110.416 25.1948 110.837 24.4155C111.259 23.6883 111.838 23.0649 112.523 22.6493C113.313 22.1818 114.155 21.8181 115.051 21.6623C116.051 21.4545 116.999 21.3506 118 21.3506C119.053 21.3506 120.159 21.5065 121.213 21.7143V21.0389C121.213 20.5714 121.16 20.1039 121.055 19.6363C120.949 19.2207 120.739 18.8052 120.423 18.4415C120.107 18.0779 119.685 17.8181 119.264 17.6623C118.685 17.4545 118.053 17.3506 117.421 17.4026C116.473 17.4026 115.577 17.4545 114.629 17.6104C113.945 17.7143 113.26 17.8701 112.575 18.0779L112.049 14.6493C112.839 14.3896 113.681 14.2337 114.471 14.0779C115.525 13.8181 116.683 13.7662 117.789 13.7662ZM118.105 29.6104C119.106 29.6104 120.159 29.5584 121.16 29.4026V24.6753C120.791 24.5714 120.475 24.5194 120.107 24.4675C119.58 24.4155 119.106 24.3636 118.579 24.3636C118.105 24.3636 117.631 24.4155 117.105 24.4675C116.631 24.5194 116.209 24.6753 115.788 24.8311C115.419 24.987 115.103 25.2987 114.84 25.6104C114.577 25.974 114.471 26.4415 114.471 26.9091C114.471 27.8961 114.787 28.6233 115.419 28.987C116.315 29.4545 117.21 29.6623 118.105 29.6104Z" fill="black"></path>
  <path d="M140.383 18.0259C139.909 17.87 139.382 17.7661 138.908 17.6622C138.171 17.5064 137.433 17.4544 136.696 17.4544C136.169 17.4544 135.695 17.5064 135.169 17.6103C134.8 17.6622 134.431 17.7661 134.01 17.87V32.5713H129.639V15.0648C130.692 14.7012 131.745 14.4414 132.799 14.1817C134.168 13.922 135.59 13.7661 137.012 13.7661C137.275 13.7661 137.644 13.7661 138.013 13.8181C138.381 13.87 138.803 13.922 139.171 13.9739C139.54 14.0259 139.909 14.0778 140.277 14.1817C140.646 14.2856 140.909 14.3375 141.12 14.3895L140.383 18.0259Z" fill="black"></path>
  <path d="M158.5 31.9999C157.446 32.3116 156.34 32.5194 155.234 32.7271C153.865 32.9349 152.496 33.0388 151.126 33.0388C149.757 33.0388 148.388 32.831 147.124 32.3635C146.018 31.9479 144.964 31.2726 144.122 30.4414C143.279 29.5583 142.647 28.5713 142.226 27.4284C141.752 26.1297 141.541 24.7791 141.541 23.4284C141.541 22.0778 141.699 20.7791 142.12 19.4804C142.436 18.3895 143.016 17.3505 143.753 16.4674C144.49 15.6362 145.386 14.9609 146.386 14.4934C147.492 14.0259 148.704 13.7661 149.968 13.8181C150.758 13.8181 151.6 13.922 152.39 14.1298C153.022 14.2856 153.602 14.5453 154.181 14.857V6.02586L158.552 5.29858V31.9999H158.5ZM146.018 23.3246C146.018 25.1947 146.492 26.6492 147.387 27.7401C148.335 28.831 149.704 29.4025 151.179 29.2986C151.758 29.2986 152.39 29.2986 152.97 29.1947C153.391 29.1427 153.76 29.0908 154.181 28.9869V18.5453C153.707 18.2336 153.18 18.0259 152.654 17.8181C152.022 17.6103 151.337 17.4544 150.6 17.5064C149.02 17.5064 147.861 18.0259 147.124 19.0648C146.281 20.3116 145.912 21.8181 146.018 23.3246Z" fill="black"></path>
  <path d="M9.50586 21.0908C8.08386 19.0648 7.39919 16.6752 7.55719 14.1817C7.71519 11.844 8.45252 9.61025 9.71652 7.68817C11.4545 5.19466 13.5085 2.9609 15.8785 1.03882C10.5065 1.61025 6.71452 3.32453 4.50252 6.70116C0.0785241 13.5064 -0.764143 25.1427 2.39586 29.7661C6.18786 35.1687 10.8225 37.2986 15.1939 38.0778C15.8259 36.7271 16.1419 35.2206 15.9839 33.7141C15.7205 30.2856 13.2452 26.4934 9.50586 21.0908Z" fill="#A8353A"></path>
  <path d="M24.4098 10.753C24.3044 14.4933 25.7264 17.5582 27.8858 19.4283C32.1518 23.0127 35.4171 26.0257 37.2604 29.0387C37.8924 30.0777 38.4191 31.1686 38.8404 32.3114C39.4198 30.9608 39.8411 29.5582 39.9464 28.1036C40.8944 19.8958 38.8404 16.2595 37.1024 11.3764C35.5224 6.90884 32.8891 2.90884 27.2538 1.40234C25.4631 4.20754 24.5151 7.42832 24.4098 10.753Z" fill="#A8353A"></path>
  <path d="M33.8902 31.1168C32.3102 28.5194 29.6769 25.8181 25.6215 22.2337C22.3035 19.3246 20.5655 15.5324 20.7235 10.6492C20.8815 7.22066 21.8822 3.89599 23.7255 0.934951C23.4095 0.934951 23.1462 0.883003 22.8302 0.883003C22.2509 0.883003 21.6715 0.831055 21.1449 0.831055C16.5102 4.51937 14.1929 7.63625 13.0342 9.55833C10.9275 13.1947 10.8222 16.2596 12.6655 18.909C16.7735 24.7791 19.6702 28.9349 20.0915 33.2986C20.2495 35.0648 20.0389 36.8311 19.4069 38.4934C20.8289 38.5453 22.1982 38.5453 23.4095 38.5453C28.2022 38.5453 32.7315 38.1298 35.8389 35.896C35.4702 34.1817 34.7855 32.5713 33.8902 31.1168Z" fill="#A8353A"></path>
</svg>
